<?xml version="1.0" ?>
<!DOCTYPE svg  PUBLIC '-//W3C//DTD SVG 1.1//EN'  'http://www.w3.org/Graphics/SVG/1.1/DTD/svg11.dtd'>
<!-- Uploaded to: SVG Repo, www.svgrepo.com, Generator: SVG Repo Mixer Tools -->
<svg width="800px" height="800px" viewBox="0 0 48 48" enable-background="new 0 0 48 48" id="_x3C_Layer_x3E_" version="1.1" xml:space="preserve" xmlns="http://www.w3.org/2000/svg" xmlns:xlink="http://www.w3.org/1999/xlink">
<g id="laptop_x2C__downloading">
<g>
<path d="M43.5,40.5h-39V13c0-0.829,0.708-1.5,1.581-1.5h35.838c0.873,0,1.581,0.671,1.581,1.5    V40.5z" fill="#F5F5F5" id="XMLID_116_"/>
<path d="M4.5,37C4.224,37,4,36.776,4,36.5V13c0-1.103,0.934-2,2.081-2H18.5c0.276,0,0.5,0.224,0.5,0.5    S18.777,12,18.5,12H6.081C5.485,12,5,12.449,5,13v23.5C5,36.776,4.776,37,4.5,37z" fill="#0277BD"/>
<path d="M43.5,37c-0.276,0-0.5-0.224-0.5-0.5V13c0-0.551-0.485-1-1.081-1H29.5c-0.276,0-0.5-0.224-0.5-0.5    s0.224-0.5,0.5-0.5h12.419C43.066,11,44,11.897,44,13v23.5C44,36.776,43.776,37,43.5,37z" fill="#0277BD"/>
<path d="M42.5,37c-0.276,0-0.5-0.224-0.5-0.5V13H29.5c-0.276,0-0.5-0.224-0.5-0.5s0.224-0.5,0.5-0.5h12.419    C42.515,12,43,12.449,43,13v23.5C43,36.776,42.776,37,42.5,37z" fill="#FFFFFF"/>
<path d="M5.5,37C5.224,37,5,36.776,5,36.5V13c0-0.551,0.485-1,1.081-1H18.5c0.276,0,0.5,0.224,0.5,0.5    S18.776,13,18.5,13H6.081L6,36.5C6,36.776,5.776,37,5.5,37z" fill="#FFFFFF"/>
<path d="M40.5,36h-21c-0.276,0-0.5-0.224-0.5-0.5v-9c0-0.276,0.224-0.5,0.5-0.5h21c0.276,0,0.5,0.224,0.5,0.5v9    C41,35.776,40.776,36,40.5,36z" fill="#E8EAF6"/>
<path d="M16.5,36h-9C7.224,36,7,35.776,7,35.5v-9C7,26.224,7.224,26,7.5,26h9c0.276,0,0.5,0.224,0.5,0.5v9    C17,35.776,16.776,36,16.5,36z" fill="#E8EAF6"/>
<path d="M40.5,24h-33C7.224,24,7,23.776,7,23.5v-8C7,15.224,7.224,15,7.5,15h33c0.276,0,0.5,0.224,0.5,0.5v8    C41,23.776,40.776,24,40.5,24z" fill="#E8EAF6"/>
</g>
<path d="M40.41,42.5H7.59c-1.894,0-3.625-1.07-4.472-2.764l-0.256-0.513   C2.696,38.892,2.938,38.5,3.309,38.5H19l0.5,1h9l0.5-1h15.691c0.372,0,0.613,0.392,0.447,0.724l-0.256,0.513   C44.035,41.43,42.304,42.5,40.41,42.5z" fill="#B3E5FC" id="XMLID_114_"/>
<path d="M40.41,43H7.59c-2.097,0-3.982-1.165-4.919-3.04l-0.256-0.513c-0.156-0.312-0.14-0.676,0.044-0.973   C2.642,38.177,2.96,38,3.309,38H19c0.189,0,0.362,0.107,0.447,0.276L19.809,39h8.382l0.362-0.724C28.638,38.107,28.811,38,29,38   h15.691c0.349,0,0.667,0.177,0.851,0.474c0.184,0.297,0.2,0.661,0.044,0.973l-0.256,0.513C44.392,41.835,42.506,43,40.41,43z    M3.309,39l0.256,0.513C4.333,41.047,5.875,42,7.59,42H40.41c1.716,0,3.258-0.953,4.025-2.487L44.691,39H29.309l-0.362,0.724   C28.862,39.893,28.689,40,28.5,40h-9c-0.189,0-0.362-0.107-0.447-0.276L18.691,39H3.309z" fill="#0277BD"/>
<path d="M4.942,41.003c-0.118,0-0.236-0.042-0.332-0.125c-0.364-0.323-0.673-0.703-0.918-1.128L3.262,39h15.429   l0.362,0.724C19.138,39.894,19.309,40,19.5,40h9c0.191,0,0.362-0.106,0.447-0.276L29.309,39h13.065c0.276,0,0.5,0.224,0.5,0.5   s-0.224,0.5-0.5,0.5H29.927l-0.085,0.171C29.586,40.682,29.072,41,28.5,41h-9c-0.572,0-1.086-0.318-1.342-0.829L18.073,40H5.136   c0.045,0.044,0.091,0.087,0.138,0.128c0.207,0.183,0.226,0.499,0.043,0.706C5.218,40.946,5.081,41.003,4.942,41.003z" fill="#E1F5FE"/>
<path d="M24.405,29.938l5.522-7.646c0.239-0.331,0.002-0.792-0.406-0.792H27.5V4c0-0.276-0.224-0.5-0.5-0.5h-6   c-0.276,0-0.5,0.224-0.5,0.5v17.5h-2.022c-0.408,0-0.645,0.462-0.406,0.792l5.522,7.646C23.794,30.215,24.206,30.215,24.405,29.938   z" fill="#64FFDA"/>
<path d="M24,30.646C24,30.646,24,30.646,24,30.646c-0.321,0-0.624-0.156-0.811-0.415l-5.522-7.646   c-0.221-0.306-0.251-0.705-0.08-1.041S18.101,21,18.478,21H20V3.5C20,3.224,20.224,3,20.5,3S21,3.224,21,3.5v18   c0,0.276-0.224,0.5-0.5,0.5h-2.022L24,29.646L29.522,22L27.5,22c-0.276,0-0.5-0.224-0.5-0.5v-18C27,3.224,27.224,3,27.5,3   S28,3.224,28,3.5V21h1.522c0.377,0,0.719,0.209,0.891,0.545s0.142,0.734-0.08,1.041l-5.522,7.646   C24.623,30.491,24.32,30.646,24,30.646z" fill="#0277BD"/>
<path d="M23.597,28.733c-0.155,0-0.308-0.072-0.406-0.207L18.478,22H20.5c0.276,0,0.5-0.224,0.5-0.5v-16   C21,5.224,21.224,5,21.5,5S22,5.224,22,5.5v16c0,0.827-0.673,1.5-1.5,1.5h-0.066l3.568,4.94c0.162,0.224,0.111,0.537-0.112,0.698   C23.801,28.703,23.699,28.733,23.597,28.733z" fill="#FFFFFF"/>
</g>
</svg>